<svg width="32" height="32" viewBox="0 0 32 32" fill="none" xmlns="http://www.w3.org/2000/svg">
  <rect width="32" height="32" rx="8" fill="#0A4B94"/>
  <path d="M16 8C11.5817 8 8 11.5817 8 16C8 20.4183 11.5817 24 16 24C20.4183 24 24 20.4183 24 16C24 11.5817 20.4183 8 16 8ZM19 16.8H16.8V19C16.8 19.4418 16.4418 19.8 16 19.8C15.5582 19.8 15.2 19.4418 15.2 19V16.8H13C12.5582 16.8 12.2 16.4418 12.2 16C12.2 15.5582 12.5582 15.2 13 15.2H15.2V13C15.2 12.5582 15.5582 12.2 16 12.2C16.4418 12.2 16.8 12.5582 16.8 13V15.2H19C19.4418 15.2 19.8 15.5582 19.8 16C19.8 16.4418 19.4418 16.8 19 16.8Z" fill="white"/>
</svg>